<svg xmlns="http://www.w3.org/2000/svg" viewBox="0 0 220 360">
<g transform="translate(20,20)"><path d="M95 285C88 205 90 135 100 75" stroke="#73503b" stroke-width="18" stroke-linecap="round"/><path d="M98 175l-58-45M102 150l60-48M100 215l62 12" stroke="#73503b" stroke-width="10" stroke-linecap="round"/><g fill="#6c9567"><ellipse cx="55" cy="110" rx="50" ry="38"/><ellipse cx="105" cy="72" rx="60" ry="45"/><ellipse cx="158" cy="112" rx="52" ry="38"/><ellipse cx="155" cy="168" rx="48" ry="37"/><ellipse cx="48" cy="168" rx="50" ry="40"/></g><g fill="#b8d69d"><path d="M25 110c20-25 40-28 58-17-10 22-30 28-58 17Z"/><path d="M78 67c22-18 45-20 59-8-12 20-32 24-59 8Z"/><path d="M132 115c20-15 37-15 49-5-10 17-26 20-49 5Z"/></g></g></svg>